HIERARCHY
ROOT Hips
{
  OFFSET -8.84179 20.0128 0.897337
  CHANNELS 6 Xposition Yposition Zposition Zrotation Xrotation Yrotation
  JOINT Bip01_Pelvis
  {
    OFFSET 0 0 0
    CHANNELS 6 Xposition Yposition Zposition Zrotation Xrotation Yrotation
    JOINT BN_Tail_01
    {
      OFFSET -1.24087 -0.718302 0
      CHANNELS 6 Xposition Yposition Zposition Zrotation Xrotation Yrotation
      JOINT BN_Tail_02
      {
        OFFSET 6.82381 0 0
        CHANNELS 6 Xposition Yposition Zposition Zrotation Xrotation Yrotation
        JOINT BN_Tail_03
        {
          OFFSET 8.76082 0 0
          CHANNELS 6 Xposition Yposition Zposition Zrotation Xrotation Yrotation
          JOINT BN_Tail_04
          {
            OFFSET 7.66999 0 0
            CHANNELS 6 Xposition Yposition Zposition Zrotation Xrotation Yrotation
            End Site
            {
              OFFSET 0 0 0
            }
          }
        }
      }
    }
    JOINT Bip01_Spine
    {
      OFFSET 1.33812 0.096014 0.0297562
      CHANNELS 6 Xposition Yposition Zposition Zrotation Xrotation Yrotation
      JOINT Bip01_R_Thigh
      {
        OFFSET -1.30135 0.103306 -2.49297
        CHANNELS 6 Xposition Yposition Zposition Zrotation Xrotation Yrotation
        JOINT Bip01_R_Calf
        {
          OFFSET 8.39601 0 0
          CHANNELS 6 Xposition Yposition Zposition Zrotation Xrotation Yrotation
          JOINT Bip01_R_HorseLink
          {
            OFFSET 9.35807 0 0
            CHANNELS 6 Xposition Yposition Zposition Zrotation Xrotation Yrotation
            JOINT Bip01_R_Foot
            {
              OFFSET 4.27819 0 0
              CHANNELS 6 Xposition Yposition Zposition Zrotation Xrotation Yrotation
              JOINT Bip01_R_Toe0
              {
                OFFSET 1.32445 2.68719 0
                CHANNELS 6 Xposition Yposition Zposition Zrotation Xrotation Yrotation
                JOINT Bip01_R_Toe0Nub
                {
                  OFFSET 0.282271 0 0
                  CHANNELS 6 Xposition Yposition Zposition Zrotation Xrotation Yrotation
                  End Site
                  {
                    OFFSET 0 0 0
                  }
                }
              }
            }
          }
        }
      }
      JOINT Bip01_L_Thigh
      {
        OFFSET -1.37978 -0.0398788 2.39225
        CHANNELS 6 Xposition Yposition Zposition Zrotation Xrotation Yrotation
        JOINT Bip01_L_Calf
        {
          OFFSET 8.39601 0 0
          CHANNELS 6 Xposition Yposition Zposition Zrotation Xrotation Yrotation
          JOINT Bip01_L_HorseLink
          {
            OFFSET 9.35808 0 0
            CHANNELS 6 Xposition Yposition Zposition Zrotation Xrotation Yrotation
            JOINT Bip01_L_Foot
            {
              OFFSET 4.27819 0 0
              CHANNELS 6 Xposition Yposition Zposition Zrotation Xrotation Yrotation
              JOINT Bip01_L_Toe0
              {
                OFFSET 1.32445 2.68719 0
                CHANNELS 6 Xposition Yposition Zposition Zrotation Xrotation Yrotation
                JOINT Bip01_L_Toe0Nub
                {
                  OFFSET 0.282267 0 0
                  CHANNELS 6 Xposition Yposition Zposition Zrotation Xrotation Yrotation
                  End Site
                  {
                    OFFSET 0 0 0
                  }
                }
              }
            }
          }
        }
      }
      JOINT Bip01_Spine1
      {
        OFFSET 4.77812 -0.00598526 -2.03848e-005
        CHANNELS 6 Xposition Yposition Zposition Zrotation Xrotation Yrotation
        JOINT Bip01_Spine2
        {
          OFFSET 7.52904 -0.00557518 -8.38637e-005
          CHANNELS 6 Xposition Yposition Zposition Zrotation Xrotation Yrotation
          JOINT Bip01_Neck
          {
            OFFSET 8.17986 0.436998 0.000127075
            CHANNELS 6 Xposition Yposition Zposition Zrotation Xrotation Yrotation
            JOINT Bip01_R_Clavicle
            {
              OFFSET -2.1244 -3.91239 -2.44847
              CHANNELS 6 Xposition Yposition Zposition Zrotation Xrotation Yrotation
              JOINT Bip01_R_UpperArm
              {
                OFFSET 6.62478 0 0
                CHANNELS 6 Xposition Yposition Zposition Zrotation Xrotation Yrotation
                JOINT Bip01_R_Forearm
                {
                  OFFSET 7.46098 0 0
                  CHANNELS 6 Xposition Yposition Zposition Zrotation Xrotation Yrotation
                  JOINT Bip01_R_Hand
                  {
                    OFFSET 7.80543 0 0
                    CHANNELS 6 Xposition Yposition Zposition Zrotation Xrotation Yrotation
                    JOINT Bip01_R_Finger0
                    {
                      OFFSET 2.2294 0.674378 0.135623
                      CHANNELS 6 Xposition Yposition Zposition Zrotation Xrotation Yrotation
                      JOINT Bip01_R_Finger0Nub
                      {
                        OFFSET 3.57154 0 0
                        CHANNELS 6 Xposition Yposition Zposition Zrotation Xrotation Yrotation
                        End Site
                        {
                          OFFSET 0 0 0
                        }
                      }
                    }
                  }
                }
              }
            }
            JOINT Bip01_L_Clavicle
            {
              OFFSET -2.28998 -4.09919 1.94072
              CHANNELS 6 Xposition Yposition Zposition Zrotation Xrotation Yrotation
              JOINT Bip01_L_UpperArm
              {
                OFFSET 6.62478 0 0
                CHANNELS 6 Xposition Yposition Zposition Zrotation Xrotation Yrotation
                JOINT Bip01_L_Forearm
                {
                  OFFSET 7.46098 0 0
                  CHANNELS 6 Xposition Yposition Zposition Zrotation Xrotation Yrotation
                  JOINT Bip01_L_Hand
                  {
                    OFFSET 7.80543 0 0
                    CHANNELS 6 Xposition Yposition Zposition Zrotation Xrotation Yrotation
                    JOINT Bip01_L_Finger0
                    {
                      OFFSET 2.2294 0.674378 -0.135623
                      CHANNELS 6 Xposition Yposition Zposition Zrotation Xrotation Yrotation
                      JOINT Bip01_L_Finger0Nub
                      {
                        OFFSET 3.57153 0 0
                        CHANNELS 6 Xposition Yposition Zposition Zrotation Xrotation Yrotation
                        End Site
                        {
                          OFFSET 0 0 0
                        }
                      }
                    }
                  }
                }
              }
            }
            JOINT Bip01_Neck1
            {
              OFFSET 3.78076 -0.00285482 1.52588e-005
              CHANNELS 6 Xposition Yposition Zposition Zrotation Xrotation Yrotation
              JOINT Bip01_Head
              {
                OFFSET 3.62738 0 0
                CHANNELS 6 Xposition Yposition Zposition Zrotation Xrotation Yrotation
                JOINT BN_Beard_L
                {
                  OFFSET 6.36381 2.6665 1.018
                  CHANNELS 6 Xposition Yposition Zposition Zrotation Xrotation Yrotation
                  End Site
                  {
                    OFFSET 0 0 0
                  }
                }
                JOINT BN_Beard_R
                {
                  OFFSET 6.3638 2.6665 -1.01806
                  CHANNELS 6 Xposition Yposition Zposition Zrotation Xrotation Yrotation
                  End Site
                  {
                    OFFSET 0 0 0
                  }
                }
                JOINT BN_Mouth
                {
                  OFFSET 0.165208 0.881832 -2.79663e-005
                  CHANNELS 6 Xposition Yposition Zposition Zrotation Xrotation Yrotation
                  JOINT BN_Thouge_01
                  {
                    OFFSET 4.3022 0.00850105 0
                    CHANNELS 6 Xposition Yposition Zposition Zrotation Xrotation Yrotation
                    JOINT BN_Thouge_02
                    {
                      OFFSET 1.50253 0 0
                      CHANNELS 6 Xposition Yposition Zposition Zrotation Xrotation Yrotation
                      End Site
                      {
                        OFFSET 0 0 0
                      }
                    }
                  }
                }
                JOINT BN_Ear_L
                {
                  OFFSET 1.27954 -1.37165 2.10918
                  CHANNELS 6 Xposition Yposition Zposition Zrotation Xrotation Yrotation
                  End Site
                  {
                    OFFSET 0 0 0
                  }
                }
                JOINT BN_Ear_R
                {
                  OFFSET 1.27953 -1.37164 -2.1093
                  CHANNELS 6 Xposition Yposition Zposition Zrotation Xrotation Yrotation
                  End Site
                  {
                    OFFSET 0 0 0
                  }
                }
                JOINT Bip01_HeadNub
                {
                  OFFSET 7.94507 0 0
                  CHANNELS 6 Xposition Yposition Zposition Zrotation Xrotation Yrotation
                  End Site
                  {
                    OFFSET 0 0 0
                  }
                }
              }
            }
          }
        }
      }
    }
  }
}
MOTION
Frames:	4
Frame Time:	0.0333333
-8.32805 4.85929 0 95.7148 -89.9999 102.795 0 -9.09495e-013 0 -89.9999 2.176 -87.4553 -1.24088 -0.718306 2.5183e-006 38.6086 12.2698 108.124 6.82381 0 2.86102e-006 -57.9353 -29.0402 -122.579 8.76082 5.24521e-006 2.38419e-006 2.03898 22.7868 -43.83 7.66998 5.96047e-008 -8.88178e-016 -38.5419 -24.094 6.58382 1.33942 0.0444269 0.0595427 -2.94197 -0.0999477 -0.441494 -1.35462 -0.108749 -2.49335 -106.888 -10.6361 167.57 8.39601 4.76837e-007 -2.38419e-007 -143.175 2.67968e-006 -8.36293e-007 9.35807 0 -4.44089e-016 153.652 1.63818e-005 6.92073e-006 4.27819 2.38419e-007 0 -114.295 -10.0069 -14.6543 1.32445 2.68719 -2.38419e-007 90 -1.7304e-005 6.97673e-006 0.282265 -2.40107e-010 0 -4.68444e-009 1.6275e-008 2.14111e-010 -1.31697 -0.11727 2.39445 -103.357 15.0366 -166.043 8.39601 0 -2.38419e-007 -139.418 -1.31063e-005 4.93332e-006 9.35807 0 8.88178e-016 158.733 -7.05003e-006 -1.40016e-005 4.27819 4.44089e-016 -2.38419e-007 -119.512 7.15756 15.4564 1.32445 2.68719 -2.38419e-007 89.0866 0.054845 -0.00374484 0.282265 -1.38778e-017 4.44089e-016 -180 -1.99755e-006 -2.19617e-007 4.7801 -0.00552654 1.26809e-005 22.7922 -0.129292 -0.732523 7.53427 -0.00374699 8.63597e-005 48.5896 -0.866654 -0.152502 8.17902 0.438046 -1.77622e-005 -64.366 0.324063 -0.0171556 -0.248728 -4.58593 -2.17214 -116.778 -74.7431 134.08 6.62478 8.88179e-016 0 84.9697 -3.97044 -109.662 7.46098 -4.76837e-007 -1.19209e-007 -45.3925 -3.03459e-006 3.99504e-006 7.80543 4.44089e-016 4.44089e-016 8.67787 -3.25569 -5.29475 2.2294 0.674378 0.135621 -82.9646 -8.34926 6.11083 3.57154 -1.19209e-007 1.19209e-007 -180 -1.01373e-005 9.10306e-007 -0.247406 -4.56107 2.22406 -114.45 76.3183 -136.69 6.62478 8.88179e-016 -1.90735e-006 74.7017 0.494841 104.709 7.46098 0 0 -43.4328 8.58351e-006 8.15407e-006 7.80543 4.4409e-016 1.19209e-007 8.8954 -14.7056 -1.66883 2.2294 0.674378 -0.135621 -85.9501 3.17475 -5.69521 3.57153 0 -5.96047e-008 -2.72141e-008 1.00268e-005 2.93467e-007 3.78078 -0.00284988 7.59959e-006 9.41869 -0.148238 0.0582572 3.62738 -7.15256e-007 -1.49012e-008 78.8429 -0.541861 0.0170643 6.36381 2.6665 1.018 67.6958 -24.2284 -107.439 6.3638 2.6665 -1.01806 -109.244 -29.2966 77.2778 0.165207 0.881838 -2.53916e-005 -152.666 7.01671e-015 -180 4.30221 0.00850105 0 15.0149 -1.41168e-005 1.41585e-005 1.50253 -3.8147e-006 -5.55112e-017 11.687 -1.49148e-005 1.33152e-005 1.27954 -1.37165 2.10918 -131.38 -55.0077 -66.9283 1.27953 -1.37164 -2.1093 45.4499 -52.0292 117.434 7.94507 5.72205e-006 -5.55112e-017 -1.23467e-007 2.10744e-012 -1.72895e-012 
-8.33471 4.75528 -4.04311e-009 94.4697 -89.9999 101.681 0 -9.09495e-013 0 -90.0399 2.68316 -87.3945 -1.24088 -0.718306 2.5183e-006 38.6178 12.2155 108.075 6.82381 5.32907e-015 2.86102e-006 -57.6069 -29.3512 -122.247 8.76082 5.24521e-006 2.38419e-006 2.02979 22.3045 -43.9634 7.66998 5.96046e-008 -5.32907e-015 -37.6166 -24.1053 6.45564 1.33942 0.0444269 0.0595427 -2.73528 -0.0823618 -0.457173 -1.35462 -0.108749 -2.49335 -108.568 -10.2963 167.576 8.39601 4.76837e-007 -2.38419e-007 -144.97 -3.00178e-006 -8.8108e-006 9.35807 1.77636e-015 1.77636e-015 151.337 2.04086e-005 1.74476e-009 4.27819 2.38419e-007 -4.44089e-016 -111.997 -9.51964 -14.6634 1.32445 2.68719 -2.38485e-007 90.0042 0.00251586 0.137054 0.282265 -2.40104e-010 2.22045e-015 -4.68445e-009 1.6275e-008 2.14111e-010 -1.31697 -0.11727 2.39445 -104.965 14.7743 -166.051 8.39601 8.88179e-016 -2.38419e-007 -140.581 -1.20735e-005 5.91996e-006 9.35807 -6.21725e-015 0 156.663 -6.80724e-006 -1.43224e-005 4.27819 -1.33227e-015 -2.38419e-007 -117.93 6.36006 15.4605 1.32445 2.68719 -2.38521e-007 89.0843 0.0709335 -0.287805 0.282265 -4.85723e-016 4.44089e-016 -180 -1.99756e-006 -1.02375e-005 4.7801 -0.00552654 1.26809e-005 23.6174 -0.401125 -0.702182 7.53427 -0.00374699 8.63597e-005 47.8835 -0.36764 -0.0243544 8.17902 0.438046 -1.77616e-005 -61.7721 0.82992 -0.686401 -0.248728 -4.58593 -2.17214 -122.228 -75.0566 131.084 6.62478 8.88179e-016 -7.10543e-015 84.3648 -5.5703 -109.377 7.46098 -4.76837e-007 -1.19209e-007 -48.2645 2.67226e-008 8.6887e-007 7.80543 -3.9968e-015 -1.77636e-015 9.89153 -3.34008 -5.06837 2.2294 0.674378 0.135621 -83.305 -8.37161 6.076 3.57154 -1.19209e-007 1.19209e-007 -180 -1.01373e-005 -9.1076e-006 -0.247406 -4.56107 2.22406 -113.998 76.0868 -139.44 6.62478 0 -1.90735e-006 74.5581 1.82992 105.028 7.46098 -1.77636e-015 8.88179e-016 -46.2467 7.20446e-006 9.43978e-006 7.80543 7.99361e-015 1.19209e-007 10.3205 -14.9402 -1.6921 2.2294 0.674378 -0.135621 -89.9604 3.32328 -5.58882 3.57153 -1.99841e-015 -5.96047e-008 -2.72141e-008 1.00268e-005 2.93467e-007 3.78078 -0.00284988 7.59959e-006 7.78004 0.245626 0.0276085 3.62738 -7.15256e-007 -1.49012e-008 79.2448 -0.161061 -0.132497 6.36381 2.6665 1.018 67.6826 -24.2808 -107.535 6.3638 2.6665 -1.01806 -109.233 -29.2527 77.1706 0.165207 0.881838 -2.53929e-005 -152.666 1.52588e-005 180 4.30221 0.00850105 1.65517e-011 15.0149 -1.40114e-005 1.41296e-005 1.50253 -3.8147e-006 1.11022e-016 11.687 -1.48304e-005 1.33147e-005 1.27954 -1.37165 2.10918 -131.971 -55.0147 -67.5855 1.27953 -1.37164 -2.1093 45.8423 -52.025 117.604 7.94507 5.72205e-006 -8.16014e-015 -1.23467e-007 2.10761e-012 -1.72883e-012 
-8.35906 4.63584 -8.79567e-009 94.4721 -89.9999 101.681 0 -9.09495e-013 0 -90.0849 3.28066 -87.3357 -1.24088 -0.718306 2.5183e-006 38.6399 12.0806 107.958 6.82381 -1.77636e-015 2.86102e-006 -56.7015 -30.1271 -121.34 8.76082 5.24521e-006 2.38419e-006 1.99761 21.0216 -44.3117 7.66998 5.96047e-008 -7.99361e-015 -35.1631 -24.132 6.08553 1.33942 0.0444269 0.0595427 -2.43853 -0.0651034 -0.468976 -1.35462 -0.108749 -2.49335 -110.488 -9.91008 167.569 8.39601 4.76837e-007 -2.38419e-007 -146.731 1.93687e-006 -1.67554e-006 9.35807 -3.55271e-015 -1.77636e-015 148.749 1.64999e-005 7.6328e-006 4.27819 2.38419e-007 1.77636e-015 -109.836 -8.98801 -14.6852 1.32445 2.68719 -2.38584e-007 90.007 0.00422095 0.229309 0.282265 -2.40108e-010 4.44089e-016 -4.68444e-009 1.6275e-008 2.14111e-010 -1.31697 -0.11727 2.39445 -106.734 14.4775 -166.031 8.39601 -2.66454e-015 -2.38419e-007 -141.721 -1.55299e-005 1.30324e-006 9.35807 -2.66454e-015 4.44089e-016 154.389 -7.15135e-006 -1.33224e-005 4.27819 -1.33227e-015 -2.38419e-007 -116.459 5.53136 15.475 1.32445 2.68719 -2.38626e-007 89.0852 0.0838056 -0.510647 0.282265 2.9976e-015 -8.88178e-016 -180 -1.99756e-006 -1.02375e-005 4.7801 -0.00552654 1.26809e-005 24.4624 -0.702545 -0.661376 7.53427 -0.00374699 8.63597e-005 47.1891 0.185741 0.125688 8.17902 0.438046 -1.7761e-005 -59.2554 1.39312 -1.44293 -0.248728 -4.58593 -2.17214 -128.17 -75.312 127.442 6.62478 -1.77636e-015 -7.10543e-015 83.8431 -6.99381 -109.088 7.46098 -4.76837e-007 -1.19209e-007 -51.1208 -1.7722e-007 9.36592e-007 7.80543 -6.21725e-015 2.22045e-016 11.4768 -3.5013 -4.74411 2.2294 0.674378 0.135621 -84.181 -8.42822 5.98576 3.57154 -1.19209e-007 1.19209e-007 -180 -1.01373e-005 -9.1076e-006 -0.247406 -4.56107 2.22406 -113.254 75.5046 -143.282 6.62478 1.77636e-015 -1.90735e-006 73.9989 3.1338 105.605 7.46098 8.88179e-016 -8.88179e-016 -47.7385 4.42307e-006 1.18343e-005 7.80543 -3.10863e-015 1.19209e-007 10.6854 -14.7068 -1.3097 2.2294 0.674378 -0.135621 -84.8351 3.13124 -5.72519 3.57153 -6.66135e-015 -5.96047e-008 -2.72141e-008 1.00268e-005 2.93467e-007 3.78078 -0.00284988 7.59959e-006 6.19046 0.697088 0.00358935 3.62738 -7.15256e-007 -1.49012e-008 79.8641 0.203951 -0.248254 6.36381 2.6665 1.018 67.6463 -24.4213 -107.795 6.36379 2.6665 -1.01806 -109.202 -29.132 76.8817 0.165207 0.881838 -2.5394e-005 -152.666 0.000167847 180 4.30221 0.00850105 3.746e-011 15.0149 -1.39045e-005 1.40931e-005 1.50253 -3.8147e-006 -1.22125e-015 11.687 -1.47367e-005 1.33088e-005 1.27954 -1.37165 2.10918 -133.518 -55.0084 -69.2992 1.27953 -1.37164 -2.1093 46.8855 -52.0106 118.058 7.94507 5.72205e-006 -1.38223e-014 -1.23467e-007 2.10761e-012 -1.72863e-012 
-8.38433 4.51453 -1.36259e-008 94.4794 -89.9999 101.681 0 -9.09495e-013 0 -90.1353 3.96774 -87.2752 -1.24088 -0.718306 2.5183e-006 38.6692 11.8927 107.802 6.82381 1.77636e-015 2.86102e-006 -55.2335 -31.1985 -119.888 8.76082 5.24521e-006 2.38419e-006 1.92575 19.0602 -44.8473 7.66998 5.96047e-008 -4.44089e-015 -31.4109 -24.1654 5.45745 1.33942 0.0444269 0.0595427 -2.05319 -0.0473736 -0.481448 -1.35462 -0.108749 -2.49335 -112.653 -9.46825 167.551 8.39601 4.76837e-007 -2.38419e-007 -148.514 1.31094e-006 -2.58127e-006 9.35807 -8.88178e-016 0 145.866 1.51218e-005 1.01689e-005 4.27819 2.38419e-007 8.88179e-016 -107.611 -8.44595 -14.6864 1.32445 2.68719 -2.38694e-007 90.0085 0.00518798 0.281421 0.282265 -2.40102e-010 2.22045e-015 -4.68444e-009 1.6275e-008 2.14111e-010 -1.31697 -0.11727 2.39445 -108.646 14.1364 -165.992 8.39601 0 -2.38419e-007 -142.871 -1.78813e-005 -2.24476e-006 9.35807 -2.66454e-015 -1.77636e-015 151.911 -7.03819e-006 -1.33457e-005 4.27819 -1.33227e-015 -2.38419e-007 -114.927 4.69621 15.4647 1.32445 2.68719 -2.38719e-007 89.0892 0.0939991 -0.681806 0.282265 2.40086e-015 -4.44089e-016 -180 -1.99756e-006 -1.02375e-005 4.7801 -0.00552654 1.26809e-005 25.3072 -0.998283 -0.617362 7.53427 -0.00374699 8.63597e-005 46.4875 0.727803 0.279756 8.17902 0.438046 -1.77604e-005 -56.7026 1.90613 -2.21308 -0.248728 -4.58593 -2.17214 -134.209 -75.4861 123.692 6.62478 -2.66454e-015 0 83.3774 -8.32601 -108.826 7.46098 -4.76837e-007 -1.19209e-007 -53.9062 -7.83005e-006 6.41976e-006 7.80543 -3.55272e-015 -1.33227e-015 13.1863 -3.71492 -4.38383 2.2294 0.674378 0.135621 -85.4663 -8.50874 5.85182 3.57154 -1.19209e-007 1.19209e-007 -180 -1.01373e-005 -9.1076e-006 -0.247406 -4.56107 2.22406 -113.225 74.3178 -148.27 6.62478 1.77636e-015 -1.90735e-006 72.5988 5.46086 106.283 7.46098 -7.10543e-015 -8.88179e-016 -62.1546 5.65923e-006 9.72552e-006 7.80543 1.15463e-014 1.19209e-007 24.3226 -13.6065 0.396418 2.2294 0.674378 -0.135621 -60.228 1.99351 -6.2479 3.57153 -5.32908e-015 -5.96047e-008 -2.72142e-008 1.00268e-005 1.29347e-006 3.78078 -0.00284988 7.59959e-006 4.58368 1.13896 -0.00702434 3.62738 -7.15256e-007 -1.49012e-008 80.4408 0.537731 -0.360306 6.36381 2.6665 1.018 67.5875 -24.6385 -108.209 6.36379 2.6665 -1.01806 -109.15 -28.937 76.4318 0.165207 0.881838 -2.53946e-005 -152.666 3.05176e-005 180 4.30221 0.00850105 6.04302e-011 15.0149 -1.38103e-005 1.4053e-005 1.50253 -3.8147e-006 -3.16414e-015 11.687 -1.46463e-005 1.32976e-005 1.27954 -1.37165 2.10918 -135.834 -54.9329 -71.8507 1.27953 -1.37164 -2.1093 48.4865 -51.9797 118.763 7.94507 5.72205e-006 -1.70142e-014 -1.23467e-007 2.10732e-012 -1.72943e-012 
